HIERARCHY
ROOT Hips
{
	OFFSET -3.958830 18.904000 13.208200
	CHANNELS 6 Xposition Yposition Zposition Zrotation Yrotation Xrotation 
	JOINT LHipJoint
	{
		OFFSET 0.000000 0.000000 0.000000
		CHANNELS 3 Zrotation Yrotation Xrotation
		JOINT LeftUpLeg
		{
			OFFSET 1.800000 -1.400000 0.085000
			CHANNELS 3 Zrotation Yrotation Xrotation
			JOINT LeftLeg
			{
				OFFSET 2.215000 -6.000000 0.000000
				CHANNELS 3 Zrotation Yrotation Xrotation
				JOINT LeftFoot
				{
					OFFSET 2.500000 -6.900000 0.000000
					CHANNELS 3 Zrotation Yrotation Xrotation
					JOINT LeftToeBase
					{
						OFFSET 0.200000 -0.500000 1.950000
						CHANNELS 3 Zrotation Yrotation Xrotation
						End Site
						{
							OFFSET 0.000000 0.000000 0.000000
						}
					}
				}
			}
		}
	}
	JOINT RHipJoint
	{
		OFFSET 0.000000 0.000000 0.000000
		CHANNELS 3 Zrotation Yrotation Xrotation
		JOINT RightUpLeg
		{
			OFFSET -1.800000 -1.400000 0.085000
			CHANNELS 3 Zrotation Yrotation Xrotation
			JOINT RightLeg
			{
				OFFSET -2.215000 -6.000000 0.000000
				CHANNELS 3 Zrotation Yrotation Xrotation
				JOINT RightFoot
				{
					OFFSET -2.500000 -6.900000 0.000000
					CHANNELS 3 Zrotation Yrotation Xrotation
					JOINT RightToeBase
					{
						OFFSET -0.200000 -0.500000 1.950000
						CHANNELS 3 Zrotation Yrotation Xrotation
						End Site
						{
							OFFSET 0.000000 0.000000 0.000000
						}
					}
				}
			}
		}
	}
	JOINT LowerBack
	{
		OFFSET 0.000000 0.000000 0.000000
		CHANNELS 3 Zrotation Yrotation Xrotation
		JOINT Spine
		{
			OFFSET -0.087000 1.940000 -0.288900
			CHANNELS 3 Zrotation Yrotation Xrotation
			JOINT Spine1
			{
				OFFSET 0.000000 1.950000 0.060000
				CHANNELS 3 Zrotation Yrotation Xrotation
				JOINT Neck
				{
					OFFSET 0.000000 0.000000 0.000000
					CHANNELS 3 Zrotation Yrotation Xrotation
					JOINT Neck1
					{
						OFFSET 0.000000 1.600000 0.340000
						CHANNELS 3 Zrotation Yrotation Xrotation
						JOINT Head
						{
							OFFSET 0.000000 1.667000 -0.240000
							CHANNELS 3 Zrotation Yrotation Xrotation
							End Site
							{
								OFFSET 0.000000 0.000000 0.000000
							}
						}
					}
				}
				JOINT LeftShoulder
				{
					OFFSET 0.000000 0.000000 0.000000
					CHANNELS 3 Zrotation Yrotation Xrotation
					JOINT LeftArm
					{
						OFFSET 2.700000 1.550000 -0.730000
						CHANNELS 3 Zrotation Yrotation Xrotation
						JOINT LeftForeArm
						{
							OFFSET 5.450000 0.000000 0.000000
							CHANNELS 3 Zrotation Yrotation Xrotation
							JOINT LeftHand
							{
								OFFSET 3.450000 0.000000 0.000000
								CHANNELS 3 Zrotation Yrotation Xrotation
								JOINT LeftHandIndex1
								{
									OFFSET 0.750000 0.000000 0.000000
									CHANNELS 3 Zrotation Yrotation Xrotation
									End Site
									{
										OFFSET 0.000000 0.000000 0.000000
									}
								}
							}
						}
					}
				}
				JOINT RightShoulder
				{
					OFFSET 0.000000 0.000000 0.000000
					CHANNELS 3 Zrotation Yrotation Xrotation
					JOINT RightArm
					{
						OFFSET -2.700000 1.550000 -0.730000
						CHANNELS 3 Zrotation Yrotation Xrotation
						JOINT RightForeArm
						{
							OFFSET -5.450000 0.000000 0.000000
							CHANNELS 3 Zrotation Yrotation Xrotation
							JOINT RightHand
							{
								OFFSET -3.450000 0.000000 0.000000
								CHANNELS 3 Zrotation Yrotation Xrotation
								JOINT RightHandIndex1
								{
									OFFSET -0.750000 0.000000 0.000000
									CHANNELS 3 Zrotation Yrotation Xrotation
									End Site
									{
										OFFSET 0.000000 0.000000 0.000000
									}
								}
							}
						}
					}
				}
			}
		}
	}
}
MOTION
Frames: 9
Frame Time: 0.016667
-0.543740 16.828040 -2.035920 -12.413843 -31.891978 14.874657 -16.256759 9.521100 7.329802 39.243017 3.450033 -36.492615 -48.541006 18.292956 11.765856 0.856426 11.161776 1.065500 0.613820 0.209840 -0.023710 18.119815 -7.775491 2.200981 -2.730091 7.819251 -28.620617 13.006111 -8.022455 27.105196 -0.172197 -4.590790 3.200820 0.330480 1.006060 0.265270 -2.812435 -2.317116 -8.823171 1.996075 -0.442369 9.586456 -0.681442 0.064473 -4.805295 0.093285 -7.764158 -1.855599 -13.985184 17.680466 20.215153 8.941940 5.071290 2.637220 -20.031773 17.900292 -5.692404 -49.610152 4.466519 -6.862757 29.622257 -26.763430 -6.209847 -4.144712 2.978154 0.260290 0.580590 -0.527760 0.701120 20.072355 -11.288191 1.743963 27.791352 -16.611833 -5.427618 152.752865 58.022964 118.979647 1.392443 -2.492832 -0.354280 0.452600 -0.092060 -0.008020 
-0.536520 16.825800 -2.037390 -12.161541 -31.460460 14.726160 -16.251002 9.636019 7.237132 38.383311 3.291308 -37.384548 -47.457023 19.397963 14.027903 0.870872 11.243657 1.030398 0.630850 0.220630 0.010910 18.104825 -7.797816 2.234925 -3.238817 7.829041 -28.898445 13.260283 -8.200724 27.463589 -0.197281 -4.663270 3.166742 0.325560 0.969240 0.272310 -2.742081 -2.391390 -8.812530 1.480458 -0.420898 9.924824 0.428326 0.120392 -5.383349 -0.198026 -7.779136 -1.490160 -14.016764 17.578841 20.625716 8.191030 5.261200 2.569550 -19.459578 19.423566 -5.680686 -51.482348 5.787716 -7.727377 31.292144 -29.459400 -7.039866 -4.102189 2.978109 0.270170 0.565050 -0.501890 0.701670 20.116763 -12.425315 1.148242 29.001375 -15.542165 -4.941409 161.290327 55.800661 131.162771 1.370068 -2.601775 -0.340260 0.428430 -0.119000 -0.016440 
-0.517410 16.827770 -2.047120 -11.900638 -29.941580 14.142243 -16.257330 9.927634 7.112914 36.833580 2.671150 -39.518279 -43.945170 21.440467 19.516745 0.859303 11.482526 0.915283 0.611900 0.152610 0.065820 18.051597 -7.848677 2.267545 -3.403927 7.628934 -28.573887 13.363822 -8.321000 27.396818 -0.218583 -4.650403 3.151663 0.256280 0.893070 0.312220 -2.499570 -2.681681 -8.870462 0.466567 -0.039423 11.424458 2.494260 0.711896 -6.281246 -0.060022 -7.263513 -1.270338 -13.140569 16.336824 22.257134 6.265120 5.460480 2.210340 -18.384198 21.320818 -5.892660 -54.254957 6.529113 -8.861320 33.046540 -33.922823 -8.551117 -4.044247 2.952366 0.328750 0.536270 -0.452900 0.659610 18.959043 -14.167567 0.757336 31.367157 -14.822508 -4.418766 168.185409 52.164739 140.728794 1.375593 -2.669459 -0.320940 0.360690 -0.115080 -0.060810 
-0.490540 16.817870 -2.054810 -11.952011 -29.018921 13.532335 -16.166554 10.209934 6.852110 34.343639 2.007704 -41.510922 -37.377749 23.437303 27.351769 0.773280 11.812813 0.751105 0.607800 0.119670 0.107670 18.077661 -8.034490 2.346742 -2.628605 7.647130 -28.262649 12.243795 -7.971484 27.669099 -0.212157 -4.540174 3.166563 0.238750 0.835090 0.318750 -2.546459 -2.636297 -8.846072 1.048195 0.542758 12.884881 3.599063 1.601005 -6.256637 -0.474833 -7.237993 -1.247482 -13.081632 15.373637 23.068634 5.028330 5.063150 0.996470 -17.646647 22.123637 -5.561573 -55.488923 8.052552 -10.462195 33.169790 -39.812285 -10.234026 -3.970225 2.924324 0.385480 0.505020 -0.425630 0.616500 18.833541 -14.395909 0.335224 33.664768 -13.570367 -3.876805 173.173623 47.792726 147.504774 1.384273 -2.670691 -0.330710 0.344270 -0.095440 -0.104200 
-0.448370 16.822150 -2.077070 -11.716886 -28.124482 12.316068 -16.053757 10.651039 6.479744 30.611730 0.851415 -43.077424 -28.134584 23.833521 36.528225 0.673890 12.030881 0.611267 0.606380 0.087900 0.173300 18.086884 -8.302245 2.459036 -1.412404 7.604288 -27.778941 10.141354 -7.345787 28.193260 -0.206577 -4.350813 3.217028 0.204470 0.733050 0.317830 -2.550628 -2.656866 -8.848410 1.502057 1.302972 15.508088 4.016734 2.725205 -6.068632 -0.242450 -7.194880 -1.879744 -12.973741 13.990937 24.346784 3.055430 4.898020 -0.652140 -17.649855 21.461736 -5.172711 -55.321702 9.493583 -11.965110 33.771360 -45.349229 -12.095539 -3.857770 2.892275 0.462570 0.448380 -0.370660 0.565570 18.197934 -13.262517 0.801877 35.535992 -12.769855 -3.344662 172.994618 44.173236 143.996265 1.441222 -2.623697 -0.330570 0.311280 -0.093900 -0.160080 
-0.411570 16.836300 -2.111530 -11.165374 -27.117420 10.287312 -15.897682 11.305280 5.897891 25.660729 -0.512924 -43.578949 -16.763597 21.390285 45.350514 0.460578 11.838687 0.615725 0.606520 0.059820 0.248130 18.093720 -8.720347 2.579225 0.196259 7.260705 -26.560999 7.115279 -6.404079 28.543839 -0.199780 -4.077615 3.324019 0.186290 0.647620 0.278100 -2.562969 -2.699078 -8.772153 1.811729 2.010548 19.133309 3.977622 3.864687 -5.949812 -0.007152 -7.071642 -2.569087 -12.739609 12.574787 26.090404 1.357870 4.464590 -3.639980 -17.767899 20.237981 -4.668696 -53.177932 11.260839 -13.060768 32.547110 -51.410805 -13.480617 -3.730699 2.805105 0.582930 0.379850 -0.310970 0.522040 17.633482 -11.488767 1.156496 36.791196 -10.352187 -1.962567 170.084553 40.868300 134.717913 1.496730 -2.524676 -0.376090 0.353690 -0.091500 -0.227700 
-0.380840 16.843130 -2.147730 -10.720935 -26.242869 8.563418 -15.741245 11.941009 5.219197 20.747154 -1.269681 -43.166615 -6.162702 16.999651 50.985050 0.229634 11.178593 0.802085 0.569300 -0.023450 0.312470 18.113026 -9.138731 2.751606 1.861021 7.046867 -25.639996 4.230854 -5.471497 28.745301 -0.186941 -3.846437 3.393324 0.138890 0.592440 0.254530 -2.626790 -2.631233 -8.616559 2.207940 2.935349 22.189674 3.944040 5.089382 -5.290670 0.159432 -6.641440 -3.488257 -11.843120 11.136493 27.343630 -0.105590 4.062420 -6.061080 -16.009009 19.120357 -3.541739 -51.051126 13.411434 -13.941605 25.815034 -58.854396 -12.833981 -3.636098 2.849893 0.680520 0.328160 -0.275890 0.459300 15.381424 -9.907733 1.418172 38.614779 -6.739566 -0.351721 165.105227 39.233410 122.098672 1.558775 -2.446475 -0.424280 0.383420 -0.062820 -0.290580 
-0.346020 16.839540 -2.175480 -10.520546 -25.368362 7.377625 -15.585687 12.484636 4.546117 16.385840 -1.477707 -42.013340 3.211839 11.711408 52.907534 0.008594 10.192100 1.106135 0.587360 -0.033150 0.373550 18.157246 -9.512950 2.955052 3.626697 6.957139 -25.014143 1.453530 -4.518778 28.745008 -0.190762 -3.669249 3.432806 0.134380 0.541090 0.260460 -2.776839 -2.470210 -8.414321 3.352416 3.596823 23.962244 3.845783 5.961266 -3.638232 0.010187 -6.347128 -4.362738 -11.260855 10.085714 28.068391 -0.745140 3.705180 -8.012480 -14.219971 17.165474 -2.146414 -48.344835 15.418770 -14.179498 16.672202 -62.981197 -9.731508 -3.584127 3.029099 0.740710 0.289880 -0.241370 0.429170 13.729858 -7.672777 1.537692 38.847961 -3.015769 0.554532 158.592392 39.093924 107.578104 1.589341 -2.431343 -0.433980 0.380640 -0.061930 -0.328910 
-0.285590 16.833060 -2.208750 -10.442266 -24.500042 6.235330 -15.416963 12.945433 3.977681 12.646084 -1.504349 -39.945470 10.329728 6.912009 51.061303 -0.205342 9.117072 1.469589 0.590210 -0.038360 0.408680 18.218503 -9.847729 3.165270 4.954197 6.938478 -24.534197 -0.759207 -3.782279 28.604988 -0.195141 -3.531363 3.491306 0.137940 0.504120 0.228290 -3.005066 -2.302549 -8.245624 5.526656 3.663102 26.231419 3.039891 6.504701 -2.421978 -0.159939 -6.535149 -5.186164 -11.636318 8.987308 28.613629 -1.322490 3.221400 -10.509680 -13.528416 14.732264 -1.018328 -44.554196 17.545654 -14.011525 7.509313 -64.783172 -5.646061 -3.547707 3.116562 0.810970 0.251770 -0.214330 0.406220 13.139668 -4.916305 1.788461 38.285879 -0.135509 0.559515 150.968567 39.144010 92.246029 1.606600 -2.370630 -0.470380 0.423330 -0.056850 -0.365640 
